<?xml version="1.0" encoding="UTF-8"?>
<svg xmlns="http://www.w3.org/2000/svg" xmlns:xlink="http://www.w3.org/1999/xlink" width="1.508569in" height="1.049243in" version="1.1" viewBox="349.184509 345.249908 199.131073 138.500092">
  <!--
	Exported with Concepts: Smarter Sketching
	Version: 336
	iOS Version: 10.3
	https://concepts.tophatch.com/
	-->
  <title>Blank 1</title>
  <desc>Drawing exported from Concepts: Smarter Sketching</desc>
  <g id="Pen" opacity="1.000">
    <path id="STROKE_7A9A0DED-7827-4434-89D9-02D2CADEA39A" opacity="1.000" fill="none" stroke="#666b6f" stroke-width="7.800" stroke-opacity="1.000" stroke-linecap="round" stroke-linejoin="round" d="M 400.685 433.750 Q 410.000 433.750 421.000 433.750 432.000 433.750 436.750 433.750 441.500 433.750 450.500 433.750 459.500 433.750 464.000 433.750 468.500 433.750 477.750 433.750 487.000 433.750 492.000 433.750 497.000 433.750 497.658 433.750 L 498.315 433.750 "></path>
    <path id="STROKE_3FA65B50-1E42-4C19-BE89-A93CAC7C684A" opacity="1.000" fill="none" stroke="#666b6f" stroke-width="7.800" stroke-opacity="1.000" stroke-linecap="round" stroke-linejoin="round" d="M 400.185 414.250 Q 400.500 414.250 406.750 414.250 413.000 414.250 418.000 414.250 423.000 414.250 428.250 414.250 433.500 414.250 438.000 414.250 442.500 414.250 447.250 414.250 452.000 414.250 456.250 414.250 460.500 414.250 464.750 414.250 469.000 414.250 472.500 414.250 476.000 414.250 480.250 414.250 484.500 414.250 487.750 414.250 491.000 414.250 494.000 414.250 497.000 414.250 497.408 414.250 L 497.815 414.250 "></path>
    <path id="STROKE_4F0201BB-8BC7-44C8-92B2-ADD1066A1502" opacity="1.000" fill="none" stroke="#666b6f" stroke-width="7.800" stroke-opacity="1.000" stroke-linecap="round" stroke-linejoin="round" d="M 399.185 395.250 Q 400.500 395.250 403.750 395.250 407.000 395.250 410.000 395.250 413.000 395.250 417.000 395.250 421.000 395.250 425.000 395.250 429.000 395.250 432.500 395.250 436.000 395.250 439.250 395.250 442.500 395.250 445.500 395.250 448.500 395.250 451.500 395.250 454.500 395.250 458.000 395.250 461.500 395.250 464.500 395.250 467.500 395.250 470.500 395.250 473.500 395.250 477.000 395.250 480.500 395.250 483.750 395.250 487.000 395.250 490.500 395.250 494.000 395.250 495.408 395.250 L 496.815 395.250 "></path>
  </g>
</svg>